<svg width="32" height="32" viewBox="0 0 32 32" fill="none" xmlns="http://www.w3.org/2000/svg">
<path d="M30.08 16.3333C30.08 15.2933 29.9867 14.2933 29.8133 13.3333H16V19.0067H23.8933C23.5533 20.84 22.52 22.3933 20.9667 23.4333V27.1133H25.7067C28.48 24.56 30.08 20.8 30.08 16.3333Z" fill="#4285F4"/>
<path d="M16 30.6667C19.96 30.6667 23.28 29.3533 25.7067 27.1133L20.9667 23.4333C19.6533 24.3133 17.9733 24.8333 16 24.8333C12.18 24.8333 8.94667 22.2533 7.79334 18.7867H2.89334V22.5867C5.30667 27.38 10.2667 30.6667 16 30.6667Z" fill="#34A853"/>
<path d="M7.79334 18.7867C7.50001 17.9067 7.33334 16.9667 7.33334 16C7.33334 15.0333 7.50001 14.0933 7.79334 13.2133V9.41333H2.89334C1.86668 11.4571 1.33244 13.7128 1.33334 16C1.33334 18.3667 1.90001 20.6067 2.89334 22.5867L7.79334 18.7867Z" fill="#FBBC05"/>
<path d="M16 7.16668C18.1533 7.16668 20.0867 7.90668 21.6067 9.36001L25.8133 5.15334C23.2733 2.78668 19.9533 1.33334 16 1.33334C10.2667 1.33334 5.30667 4.62001 2.89334 9.41334L7.79334 13.2133C8.94667 9.74668 12.18 7.16668 16 7.16668Z" fill="#EA4335"/>
</svg>
